<svg id="图层_1" data-name="图层 1" xmlns="http://www.w3.org/2000/svg" viewBox="0 0 22.25 24"><defs><style>.cls-1{fill:#1982ea;}</style></defs><title>收起</title><g id="图层_10" data-name="图层 10"><g id="图层_10-2" data-name="图层 10-2"><g id="组_34" data-name="组 34"><path id="路径_22" data-name="路径 22" class="cls-1" d="M3.06,25a1.19,1.19,0,0,1-.83-2l10.08-9.84L2.23,3A1.19,1.19,0,0,1,3.91,1.35l10.92,11a1.19,1.19,0,0,1,0,1.68h0L3.89,24.66A1.17,1.17,0,0,1,3.06,25Z" transform="translate(-1.88 -1)"/></g></g></g><g id="图层_10-2-2" data-name="图层 10"><g id="图层_10-2-3" data-name="图层 10-2"><g id="组_34-2" data-name="组 34"><path id="路径_22-2" data-name="路径 22" class="cls-1" d="M12,25a1.19,1.19,0,0,1-1.19-1.19,1.16,1.16,0,0,1,.36-.84l10.07-9.84L11.17,3a1.2,1.2,0,0,1,0-1.68,1.18,1.18,0,0,1,1.68,0l10.93,11a1.19,1.19,0,0,1,0,1.68h0L12.84,24.66A1.19,1.19,0,0,1,12,25Z" transform="translate(-1.88 -1)"/></g></g></g></svg>