<?xml version="1.0" encoding="utf-8"?>
<!-- Generator: Adobe Illustrator 24.0.1, SVG Export Plug-In . SVG Version: 6.00 Build 0)  -->
<svg version="1.1" id="图层_1" xmlns="http://www.w3.org/2000/svg" xmlns:xlink="http://www.w3.org/1999/xlink" x="0px" y="0px"
	 viewBox="0 0 26 26" style="enable-background:new 0 0 26 26;" xml:space="preserve">
<style type="text/css">
	.st0{fill:#1982EA;}
</style>
<g id="图层_7" transform="translate(-16.88 -13.926)">
	<g id="组_33" transform="translate(16.88 13.926)">
		<path id="路径_20" class="st0" d="M22.8,24.8h-7.1c-0.7,0-1.2-0.5-1.2-1.2v-7.7h-3.1v7.7c0,0.7-0.5,1.2-1.2,1.2c0,0,0,0,0,0H3.2
			c-1.2,0-2.2-1-2.2-2.2V10.2c0-0.4,0.2-0.7,0.5-1l10.8-8.5c0.4-0.3,1.1-0.3,1.5,0l10.8,8.5c0.3,0.2,0.5,0.6,0.5,0.9v12.5
			C25,23.9,24,24.8,22.8,24.8C22.8,24.8,22.8,24.8,22.8,24.8z M17,22.4h5.6V10.7L13,3.2l-9.6,7.5v11.7H9v-7.7c0-0.7,0.5-1.2,1.2-1.2
			h5.5c0.7,0,1.2,0.5,1.2,1.2V22.4z"/>
	</g>
</g>
</svg>
