<svg id="图层_1" data-name="图层 1" xmlns="http://www.w3.org/2000/svg" viewBox="0 0 23.98 24.57"><defs><style>.cls-1{fill:#1982ea;}</style></defs><title>重置</title><path id="刷新" class="cls-1" d="M23.88,15.46h-.29a1.21,1.21,0,0,0-1.05.76,9.89,9.89,0,0,1-9.24,6.61,13.26,13.26,0,0,1-2-.18,9.84,9.84,0,1,1,8.48-17H18.22a1.23,1.23,0,0,0,0,2.46h4.91a1.2,1.2,0,0,0,1.23-1.17V2A1.23,1.23,0,0,0,21.9,2V4.23A12.27,12.27,0,0,0,13.3.72a8.45,8.45,0,0,0-1.23.06A12.28,12.28,0,1,0,24.93,16.93a1.13,1.13,0,0,0-.72-1.42,1.2,1.2,0,0,0-.33,0Z" transform="translate(-1.01 -0.72)"/></svg>